<svg width="19" height="20" viewBox="0 0 19 20" fill="none"
    xmlns="http://www.w3.org/2000/svg">
    <path opacity="0.4" d="M14.1203 20H4.8797C2.18923 20 0 17.8311 0 15.1646V9.83544C0 7.16894 2.18923 5 4.8797 5H14.1203C16.8108 5 19 7.16894 19 9.83544V15.1646C19 17.8311 16.8108 20 14.1203 20" fill="#8D8D8D"/>
    <path d="M13.2551 8C12.844 8 12.5103 7.67634 12.5103 7.27754V4.35689C12.5103 2.75111 11.1635 1.44491 9.50894 1.44491C8.74719 1.44491 7.94769 1.7416 7.37861 2.28778C6.80854 2.83588 6.49272 3.56508 6.48974 4.34341V7.27754C6.48974 7.67634 6.15604 8 5.74487 8C5.3337 8 5 7.67634 5 7.27754V4.35689C5.00497 3.17303 5.47771 2.08067 6.32984 1.26285C7.18098 0.443107 8.28139 0.0317881 9.51192 0C11.9849 0 14 1.95449 14 4.35689V7.27754C14 7.67634 13.6663 8 13.2551 8" fill="#8D8D8D"/>
</svg>
