<svg width="24" height="24" viewBox="0 0 24 24" fill="none"
    xmlns="http://www.w3.org/2000/svg">
    <path fill-rule="evenodd" clip-rule="evenodd" d="M20.3991 9.146L21.1193 9.866C21.6895 10.426 21.9997 11.186 21.9997 11.986C22.0097 12.786 21.6995 13.547 21.1393 14.116C21.1327 14.1233 21.126 14.1298 21.1193 14.1362C21.116 14.1394 21.1127 14.1427 21.1093 14.146L20.3991 14.856C20.119 15.136 19.9589 15.516 19.9589 15.917V16.946C19.9589 18.606 18.6084 19.957 16.9478 19.957H15.9174C15.5173 19.957 15.1372 20.116 14.8571 20.396L14.1368 21.116C13.5466 21.707 12.7763 21.996 12.006 21.996C11.2357 21.996 10.4655 21.707 9.87526 21.127L9.14499 20.396C8.86489 20.116 8.48475 19.957 8.08461 19.957H7.05423C5.39363 19.957 4.04314 18.606 4.04314 16.946V15.917C4.04314 15.516 3.88308 15.136 3.60298 14.846L2.88272 14.136C1.7123 12.967 1.70229 11.056 2.87272 9.877L3.60298 9.146C3.88308 8.866 4.04314 8.486 4.04314 8.076V7.056C4.04314 5.396 5.39363 4.047 7.05423 4.047H8.08461C8.48475 4.047 8.86489 3.886 9.14499 3.606L9.86525 2.886C11.0357 1.707 12.9464 1.707 14.1268 2.877L14.8571 3.606C15.1372 3.886 15.5173 4.047 15.9174 4.047H16.9478C18.6084 4.047 19.9589 5.396 19.9589 7.056V8.087C19.9589 8.486 20.119 8.866 20.3991 9.146ZM9.42509 15.446C9.66518 15.446 9.88526 15.356 10.0453 15.186L15.1872 10.047C15.5273 9.707 15.5273 9.146 15.1872 8.806C14.8471 8.467 14.2969 8.467 13.9567 8.806L8.81487 13.946C8.47475 14.286 8.47475 14.846 8.81487 15.186C8.97493 15.356 9.19501 15.446 9.42509 15.446ZM13.6966 14.566C13.6966 15.056 14.0868 15.446 14.577 15.446C15.0571 15.446 15.4473 15.056 15.4473 14.566C15.4473 14.087 15.0571 13.696 14.577 13.696C14.0868 13.696 13.6966 14.087 13.6966 14.566ZM9.4351 8.556C9.91527 8.556 10.3054 8.946 10.3054 9.426C10.3054 9.917 9.91527 10.306 9.4351 10.306C8.95492 10.306 8.55478 9.917 8.55478 9.426C8.55478 8.946 8.95492 8.556 9.4351 8.556Z" fill="#C67C4E"/>
</svg>
