<svg width="14" height="15" viewBox="0 0 14 15" fill="none"
    xmlns="http://www.w3.org/2000/svg">
    <path d="M6.70384 2.12692H4.52276C2.72901 2.12692 1.60434 3.39683 1.60434 5.19467V10.0445C1.60434 11.8423 2.72376 13.1123 4.52276 13.1123H9.67009C11.4697 13.1123 12.5891 11.8423 12.5891 10.0445V7.69483" stroke="#303336" stroke-linecap="round" stroke-linejoin="round"/>
    <path fill-rule="evenodd" clip-rule="evenodd" d="M5.14955 6.87053L9.5088 2.51128C10.0519 1.96878 10.9321 1.96878 11.4752 2.51128L12.1851 3.22119C12.7282 3.76428 12.7282 4.64511 12.1851 5.18761L7.80489 9.56786C7.56747 9.80528 7.24547 9.93886 6.90947 9.93886H4.7243L4.77914 7.73386C4.7873 7.40953 4.91972 7.10036 5.14955 6.87053Z" stroke="#303336" stroke-linecap="round" stroke-linejoin="round"/>
    <path d="M8.84637 3.18479L11.5099 5.84829" stroke="#303336" stroke-linecap="round" stroke-linejoin="round"/>
</svg>
