<svg width="24" height="24" viewBox="0 0 24 24" fill="none"
    xmlns="http://www.w3.org/2000/svg">
    <path fill-rule="evenodd" clip-rule="evenodd" d="M12 21.6C14.5461 21.6 16.9879 20.5886 18.7882 18.7882C20.5886 16.9879 21.6 14.5461 21.6 12C21.6 9.45392 20.5886 7.01212 18.7882 5.21177C16.9879 3.41142 14.5461 2.39999 12 2.39999C9.45392 2.39999 7.01212 3.41142 5.21177 5.21177C3.41142 7.01212 2.39999 9.45392 2.39999 12C2.39999 14.5461 3.41142 16.9879 5.21177 18.7882C7.01212 20.5886 9.45392 21.6 12 21.6ZM8.39999 10.8H5.99999V13.2H8.39999V10.8ZM18 10.8H15.6V13.2H18V10.8ZM10.8 10.8H13.2V13.2H10.8V10.8Z" fill="#808080"/>
</svg>
