<svg width="10" height="9" viewBox="0 0 10 9" fill="none"
    xmlns="http://www.w3.org/2000/svg">
    <path d="M5.72086 0.962506L6.45419 2.42917C6.55419 2.63334 6.82086 2.82917 7.04586 2.86667L8.37502 3.08751C9.22502 3.22917 9.42502 3.84584 8.81252 4.45417L7.77919 5.48751C7.60419 5.66251 7.50836 6.00001 7.56252 6.24167L7.85836 7.52084C8.09169 8.53334 7.55419 8.92501 6.65836 8.39584L5.41252 7.65834C5.18752 7.52501 4.81669 7.52501 4.58752 7.65834L3.34169 8.39584C2.45002 8.92501 1.90836 8.52917 2.14169 7.52084L2.43752 6.24167C2.49169 6.00001 2.39586 5.66251 2.22086 5.48751L1.18752 4.45417C0.57919 3.84584 0.775023 3.22917 1.62502 3.08751L2.95419 2.86667C3.17502 2.82917 3.44169 2.63334 3.54169 2.42917L4.27502 0.962506C4.67502 0.166673 5.32502 0.166673 5.72086 0.962506Z" fill="#FBBE21"/>
</svg>
